HIERARCHY
ROOT Pelvis
{
	OFFSET 0.000000 0.000000 0.000000
	CHANNELS 6 Xposition Yposition Zposition Xrotation Yrotation Zrotation
	JOINT LeftUpLeg_virtual
	{
		OFFSET 0.000000 0.000000 0.000000
		CHANNELS 3 Xrotation Yrotation Zrotation
		JOINT LeftUpLeg
		{
			OFFSET 18.735201 -5.666702 -4.541200
			CHANNELS 3 Xrotation Yrotation Zrotation
			JOINT LeftLeg
			{
				OFFSET -0.021200 -31.938179 0.493100
				CHANNELS 3 Xrotation Yrotation Zrotation
				JOINT LeftFoot
				{
					OFFSET 0.021200 -31.938179 -4.336299
					CHANNELS 3 Xrotation Yrotation Zrotation
					JOINT LeftToeBase
					{
						OFFSET 0.943001 -26.722000 15.023500
						CHANNELS 3 Xrotation Yrotation Zrotation
						End Site
						{
							OFFSET 0 0 0
						}
					}
				}
			}
		}
	}
	JOINT RightUpLeg_virtual
	{
		OFFSET 0.000000 0.000000 0.000000
		CHANNELS 3 Xrotation Yrotation Zrotation
		JOINT RightUpLeg
		{
			OFFSET -18.735201 -5.666702 -4.541200
			CHANNELS 3 Xrotation Yrotation Zrotation
			JOINT RightLeg
			{
				OFFSET 0.018946 -31.938133 0.493100
				CHANNELS 3 Xrotation Yrotation Zrotation
				JOINT RightFoot
				{
					OFFSET -0.018946 -31.938126 -4.336299
					CHANNELS 3 Xrotation Yrotation Zrotation
					JOINT RightToeBase
					{
						OFFSET -0.943001 -26.722004 15.023500
						CHANNELS 3 Xrotation Yrotation Zrotation
						End Site
						{
							OFFSET 0 0 0
						}
					}
				}
			}
		}
	}
	JOINT Hips_virtual
	{
		OFFSET 0.000000 0.000000 0.000000
		CHANNELS 3 Xrotation Yrotation Zrotation
		JOINT Hips
		{
			OFFSET -0.000000 -0.000000 -0.000000
			CHANNELS 3 Xrotation Yrotation Zrotation
			JOINT Spine
			{
				OFFSET 0.000000 10.199997 -0.299500
				CHANNELS 3 Xrotation Yrotation Zrotation
				JOINT Spine1
				{
					OFFSET 0.000000 11.900002 -1.516600
					CHANNELS 3 Xrotation Yrotation Zrotation
					JOINT Spine2
					{
						OFFSET 0.000000 13.600006 -2.842500
						CHANNELS 3 Xrotation Yrotation Zrotation
						JOINT Neck_virtual
						{
							OFFSET 0.000000 0.000000 0.000000
							CHANNELS 3 Xrotation Yrotation Zrotation
							JOINT Neck
							{
								OFFSET 0.000000 9.624100 -2.890100
								CHANNELS 3 Xrotation Yrotation Zrotation
								JOINT Head
								{
									OFFSET 0.000000 14.068802 -1.351900
									CHANNELS 3 Xrotation Yrotation Zrotation
									End Site
									{
										OFFSET 0 0 0
									}
								}
							}
						}
						JOINT LeftShoulder_virtual
						{
							OFFSET 0.000000 0.000000 0.000000
							CHANNELS 3 Xrotation Yrotation Zrotation
							JOINT LeftShoulder
							{
								OFFSET 15.263000 10.923401 -0.547700
								CHANNELS 3 Xrotation Yrotation Zrotation
								JOINT LeftArm
								{
									OFFSET 25.438599 -2.830597 -13.032500
									CHANNELS 3 Xrotation Yrotation Zrotation
									JOINT LeftForeArm
									{
										OFFSET 29.960503 0.000000 0.000000
										CHANNELS 3 Xrotation Yrotation Zrotation
										JOINT LeftHand
										{
											OFFSET 27.849251 0.000000 0.000000
											CHANNELS 3 Xrotation Yrotation Zrotation
											End Site
											{
												OFFSET 0 0 0
											}
										}
									}
								}
							}
						}
						JOINT RightShoulder_virtual
						{
							OFFSET 0.000000 0.000000 0.000000
							CHANNELS 3 Xrotation Yrotation Zrotation
							JOINT RightShoulder
							{
								OFFSET -15.263000 10.923401 -0.547700
								CHANNELS 3 Xrotation Yrotation Zrotation
								JOINT RightArm
								{
									OFFSET -25.438599 -2.830597 -13.032500
									CHANNELS 3 Xrotation Yrotation Zrotation
									JOINT RightForeArm
									{
										OFFSET -29.960503 0.000000 0.000000
										CHANNELS 3 Xrotation Yrotation Zrotation
										JOINT RightHand
										{
											OFFSET -27.849251 0.000000 0.000000
											CHANNELS 3 Xrotation Yrotation Zrotation
											End Site
											{
												OFFSET 0 0 0
											}
										}
									}
								}
							}
						}
					}
				}
			}
		}
	}
}
MOTION
Frames: 8
Frame Time: 0.03333333
10.651548 95.332748 -0.513554 0.000000 0.000000 0.000000 10.842597 -24.154003 -4.499487 -25.313198 7.457845 7.948604 30.725705 13.872220 -0.061823 -17.835714 13.588265 2.681102 0.000000 0.000000 0.000000 9.060441 -9.606956 2.837570 -19.055118 -8.640709 -13.104748 24.768257 0.829828 -0.218590 -22.742413 -3.552837 10.652216 0.000000 0.000000 0.000000 -0.237224 -10.607171 0.591021 1.425676 -2.340700 -3.641178 5.056414 0.276045 -2.659516 0.873427 0.319138 -1.224964 0.000000 0.000000 0.000000 2.059325 -0.062040 0.275277 -1.594014 -0.112554 0.221353 0.000000 0.000000 0.000000 2.406994 0.391939 -0.469049 1.798645 -4.345506 -9.073771 -4.645728 -1.399611 -54.266700 -0.964484 -41.535022 -4.057528 0.000000 0.000000 0.000000 3.373168 -0.370757 0.687667 2.258924 -0.274253 13.670572 4.440730 -6.778608 54.035040 1.477099 38.053917 4.389553 0.000000 0.000000 0.000000 
10.873209 95.314850 -0.429222 0.000000 0.000000 0.000000 10.873248 -24.406947 -4.564632 -25.228277 7.421836 7.819949 30.687224 14.035338 -0.054073 -17.898419 13.732553 2.782644 0.000000 0.000000 0.000000 9.153255 -9.686314 2.870614 -18.938803 -8.683931 -13.084793 24.617981 0.850577 -0.285426 -22.865322 -3.504455 10.545564 0.000000 0.000000 0.000000 -0.230589 -10.787202 0.575395 1.641112 -2.519164 -3.766183 4.952014 0.123083 -2.709707 0.834553 0.242660 -1.262091 0.000000 0.000000 0.000000 2.017794 -0.090021 0.292407 -1.614413 -0.113213 0.234339 0.000000 0.000000 0.000000 2.404795 0.330965 -0.457810 1.784122 -4.445719 -9.042956 -4.681514 -1.902482 -54.411671 -0.925048 -42.160138 -4.080260 0.000000 0.000000 0.000000 3.377498 -0.422003 0.727081 2.270497 -0.435301 13.820283 4.478798 -6.524872 54.161522 1.486496 38.631045 4.456149 0.000000 0.000000 0.000000 
11.079594 95.296112 -0.342913 0.000000 0.000000 0.000000 10.898602 -24.640445 -4.644358 -25.148640 7.394350 7.680228 30.641834 14.187736 -0.052439 -17.961967 13.871080 2.868059 0.000000 0.000000 0.000000 9.245054 -9.771472 2.904829 -18.823125 -8.728698 -13.063783 24.451664 0.853797 -0.353237 -22.998217 -3.473006 10.426225 0.000000 0.000000 0.000000 -0.225472 -10.958248 0.557792 1.847554 -2.677953 -3.905959 4.848061 -0.036174 -2.770176 0.796139 0.163302 -1.304714 0.000000 0.000000 0.000000 1.976117 -0.120286 0.306930 -1.635224 -0.114744 0.246472 0.000000 0.000000 0.000000 2.405212 0.268110 -0.447877 1.770209 -4.549347 -9.015427 -4.706615 -2.427636 -54.559746 -0.876641 -42.802419 -4.099754 0.000000 0.000000 0.000000 3.383543 -0.473958 0.769187 2.283431 -0.597384 13.979289 4.496520 -6.268039 54.279493 1.484228 39.227218 4.527453 0.000000 0.000000 0.000000 
11.266943 95.278076 -0.258684 0.000000 0.000000 0.000000 10.920082 -24.865951 -4.726576 -25.076628 7.369303 7.541449 30.602007 14.336617 -0.055079 -18.021492 14.007977 2.945113 0.000000 0.000000 0.000000 9.340724 -9.847489 2.942480 -18.699356 -8.772392 -13.036908 24.272848 0.842872 -0.420149 -23.137595 -3.455920 10.299319 0.000000 0.000000 0.000000 -0.219402 -11.123255 0.538582 2.054640 -2.827633 -4.056495 4.746736 -0.199809 -2.839517 0.759552 0.082003 -1.351823 0.000000 0.000000 0.000000 1.934643 -0.151844 0.320454 -1.656446 -0.116993 0.258431 0.000000 0.000000 0.000000 2.406571 0.204120 -0.438737 1.755410 -4.656296 -8.990516 -4.725080 -2.973457 -54.710300 -0.821223 -43.461344 -4.116558 0.000000 0.000000 0.000000 3.391136 -0.526249 0.814164 2.297633 -0.759653 14.148190 4.496970 -6.003127 54.389346 1.472221 39.837341 4.602244 0.000000 0.000000 0.000000 
11.440764 95.261635 -0.179754 0.000000 0.000000 0.000000 10.939017 -25.086641 -4.811209 -25.009436 7.345976 7.402377 30.705074 14.447897 -0.117936 -17.970250 14.135987 2.923601 0.000000 0.000000 0.000000 9.442129 -9.910645 2.982742 -18.562969 -8.814213 -13.003828 24.081867 0.819330 -0.485835 -23.281706 -3.451630 10.166190 0.000000 0.000000 0.000000 -0.209639 -11.281820 0.518330 2.273394 -2.970050 -4.214667 4.649233 -0.368837 -2.918910 0.725428 -0.001528 -1.404137 0.000000 0.000000 0.000000 1.894328 -0.185360 0.332986 -1.677360 -0.119799 0.270471 0.000000 0.000000 0.000000 2.408320 0.138922 -0.432295 1.740040 -4.763189 -8.973653 -4.730361 -3.533534 -54.871909 -0.759262 -44.127977 -4.134882 0.000000 0.000000 0.000000 3.397997 -0.580307 0.862693 2.311312 -0.928524 14.329781 4.482430 -5.751230 54.491724 1.448407 40.445262 4.683517 0.000000 0.000000 0.000000 
11.603935 95.245949 -0.105640 0.000000 0.000000 0.000000 10.960515 -25.302316 -4.893719 -24.939114 7.323477 7.265518 30.807025 14.554271 -0.178203 -17.917943 14.258781 2.903211 0.000000 0.000000 0.000000 9.551338 -9.962735 3.026117 -18.411229 -8.855077 -12.964292 23.882597 0.782099 -0.549270 -23.427438 -3.461483 10.028113 0.000000 0.000000 0.000000 -0.196762 -11.435035 0.497015 2.499962 -3.113073 -4.378184 4.555620 -0.541264 -3.008181 0.693825 -0.086173 -1.461523 0.000000 0.000000 0.000000 1.856777 -0.221091 0.344502 -1.697146 -0.123753 0.282785 0.000000 0.000000 0.000000 2.409599 0.073517 -0.428619 1.723749 -4.869046 -8.963307 -4.728717 -4.102693 -55.040256 -0.693487 -44.799730 -4.153890 0.000000 0.000000 0.000000 3.403027 -0.636061 0.911776 2.323526 -1.103736 14.512192 4.457320 -5.506172 54.588012 1.415643 41.051414 4.772075 0.000000 0.000000 0.000000 
11.755672 95.231155 -0.032915 0.000000 0.000000 0.000000 10.973349 -25.519267 -4.974471 -24.882767 7.298735 7.133872 30.900582 14.652690 -0.232154 -17.870743 14.371338 2.886718 0.000000 0.000000 0.000000 9.668894 -10.005327 3.073396 -18.244784 -8.895587 -12.918260 23.692707 0.731804 -0.604050 -23.561694 -3.487542 9.896882 0.000000 0.000000 0.000000 -0.182703 -11.580721 0.474917 2.725470 -3.254300 -4.543540 4.465936 -0.716444 -3.106788 0.664024 -0.171354 -1.523522 0.000000 0.000000 0.000000 1.822806 -0.260524 0.352938 -1.715607 -0.130055 0.294400 0.000000 0.000000 0.000000 2.411228 0.007727 -0.427433 1.707130 -4.977220 -8.956159 -4.728631 -4.688615 -55.209713 -0.625233 -45.488766 -4.171304 0.000000 0.000000 0.000000 3.406159 -0.693097 0.959746 2.334054 -1.284652 14.688706 4.424478 -5.261707 54.680189 1.374806 41.658567 4.869577 0.000000 0.000000 0.000000 
11.882721 95.211281 0.017235 0.000000 0.000000 0.000000 10.979603 -25.731570 -5.049371 -24.838476 7.272175 7.012126 30.987411 14.742854 -0.278664 -17.826650 14.473155 2.875893 0.000000 0.000000 0.000000 9.792709 -10.033165 3.122447 -18.066747 -8.933574 -12.867542 23.496609 0.670088 -0.652116 -23.698371 -3.528429 9.769599 0.000000 0.000000 0.000000 -0.168622 -11.720191 0.452425 2.943322 -3.401536 -4.706309 4.380942 -0.894528 -3.215855 0.636575 -0.257248 -1.590695 0.000000 0.000000 0.000000 1.793061 -0.302639 0.358560 -1.732693 -0.138266 0.305584 0.000000 0.000000 0.000000 2.412469 -0.058835 -0.429277 1.688873 -5.090968 -8.953413 -4.732316 -5.282157 -55.382715 -0.557599 -46.187501 -4.189378 0.000000 0.000000 0.000000 3.408410 -0.751369 1.004800 2.344136 -1.472590 14.853011 4.393258 -5.018598 54.765403 1.329823 42.264360 4.972843 0.000000 0.000000 0.000000 
